/* XPM */
static char *east_wall[] = {
/* width height num_colors chars_per_pixel */
"64 64 2 1",
/* colors */
". c #F0E68C",
"# c #DDD67A",
/* pixels */
"................................................................",
"................................................................",
"................................................................",
"................................................................",
"################################################################",
"################################################################",
"################################################################",
"################################################################",
"................................................................",
"................................................................",
"................................................................",
"................................................................",
"################################################################",
"################################################################",
"################################################################",
"################################################################",
"................................................................",
"................................................................",
"................................................................",
"................................................................",
"################################################################",
"################################################################",
"################################################################",
"################################################################",
"................................................................",
"................................................................",
"................................................................",
"................................................................",
"################################################################",
"################################################################",
"################################################################",
"################################################################",
"................................................................",
"................................................................",
"................................................................",
"................................................................",
"################################################################",
"################################################################",
"################################################################",
"################################################################",
"................................................................",
"................................................................",
"................................................................",
"................................................................",
"################################################################",
"################################################################",
"################################################################",
"################################################################",
"................................................................",
"................................................................",
"................................................................",
"................................................................",
"################################################################",
"################################################################",
"################################################################",
"################################################################",
"................................................................",
"................................................................",
"................................................................",
"................................................................",
"################################################################",
"################################################################",
"################################################################",
"################################################################"
};
