/* XPM */
static char *south_wall[] = {
/* width height num_colors chars_per_pixel */
"64 64 2 1",
/* colors */
". c #FFE4B5",
"# c #F5D5A0",
/* pixels */
"................................................................",
"................................................................",
"................................................................",
"................................................................",
"################################################################",
"################################################################",
"################################################################",
"################################################################",
"................................................................",
"................................................................",
"................................................................",
"................................................................",
"################################################################",
"################################################################",
"################################################################",
"################################################################",
"................................................................",
"................................................................",
"................................................................",
"................................................................",
"################################################################",
"################################################################",
"################################################################",
"################################################################",
"................................................................",
"................................................................",
"................................................................",
"................................................................",
"################################################################",
"################################################################",
"################################################################",
"################################################################",
"................................................................",
"................................................................",
"................................................................",
"................................................................",
"################################################################",
"################################################################",
"################################################################",
"################################################################",
"................................................................",
"................................................................",
"................................................................",
"................................................................",
"################################################################",
"################################################################",
"################################################################",
"################################################################",
"................................................................",
"................................................................",
"................................................................",
"................................................................",
"################################################################",
"################################################################",
"################################################################",
"################################################################",
"................................................................",
"................................................................",
"................................................................",
"................................................................",
"################################################################",
"################################################################",
"################################################################",
"################################################################"
};
