/* XPM */
static char *west_wall[] = {
/* width height num_colors chars_per_pixel */
"64 64 2 1",
/* colors */
". c #B0E0E6",
"# c #9DCDD4",
/* pixels */
"................................................................",
"................................................................",
"................................................................",
"................................................................",
"################################################################",
"################################################################",
"################################################################",
"################################################################",
"................................................................",
"................................................................",
"................................................................",
"................................................................",
"################################################################",
"################################################################",
"################################################################",
"################################################################",
"................................................................",
"................................................................",
"................................................................",
"................................................................",
"################################################################",
"################################################################",
"################################################################",
"################################################################",
"................................................................",
"................................................................",
"................................................................",
"................................................................",
"################################################################",
"################################################################",
"################################################################",
"################################################################",
"................................................................",
"................................................................",
"................................................................",
"................................................................",
"################################################################",
"################################################################",
"################################################################",
"################################################################",
"................................................................",
"................................................................",
"................................................................",
"................................................................",
"################################################################",
"################################################################",
"################################################################",
"################################################################",
"................................................................",
"................................................................",
"................................................................",
"................................................................",
"################################################################",
"################################################################",
"################################################################",
"################################################################",
"................................................................",
"................................................................",
"................................................................",
"................................................................",
"################################################################",
"################################################################",
"################################################################",
"################################################################"
};
